<?xml version="1.0" encoding="UTF-8" standalone="no"?> <svg id="Layer_1" data-name="Layer 1" xmlns="http://www.w3.org/2000/svg" viewBox="0 0 128 128"><defs><style>.cls-1{fill:#1d75b8;}.cls-2{fill:#2d3e50;}</style></defs><title>a</title><path class="cls-1" d="M73.31987,80.5575l.0492-.02652a20.06444,20.06444,0,0,0,8.736-8.98236l.02652-.05458c.206-.42321.39746-.8518.56736-1.27078L65.51681,66.23447l2.7649,16.14618A20.16826,20.16826,0,0,0,73.31987,80.5575Z"/><path class="cls-1" d="M84.15,62.33179a19.85512,19.85512,0,0,0-.27947-2.98751l-.02362-.13778a20.41078,20.41078,0,0,0-.75179-2.94421L83.04,56.11271a20.28718,20.28718,0,0,0-1.28318-2.94815l-.07873-.15351a20.45192,20.45192,0,0,0-1.99956-2.99539l-.07476-.08658a20.05744,20.05744,0,0,0-8.60045-6.16L65.55177,62.383,83.776,66.61035a20.15036,20.15036,0,0,0,.37788-4.18016Zm-2.5703,1.14543L68.76758,60.5015,72.625,47.33516A17.60735,17.60735,0,0,1,74.61271,48.638a17.35094,17.35094,0,0,1,3.00721,2.90486l.09052.10628a17.78946,17.78946,0,0,1,1.71223,2.57028l.07873.14563a17.95524,17.95524,0,0,1,1.12179,2.5821l.05905.16139a18.36551,18.36551,0,0,1,.64159,2.523l.02362.13778a17.93238,17.93238,0,0,1,.244,2.60571l.00394.11808C81.59933,62.81989,81.59542,63.15051,81.57966,63.47721Z"/><path class="cls-1" d="M61.3245,64.01156c-.00865-.06919-.01365-.11339-.016-.15683-.00135-.02806-.00154-.05343-.001-.11186l.00173-.07765c.00173-.03383.00423-.06688.00846-.103.0025-.02729.00846-.06458.01768-.11685l.045-.2118,5.98606-20.429A20.4722,20.4722,0,0,0,63.957,42.5174a20.164,20.164,0,1,0,.58657,40.32068Z"/><path class="cls-2" d="M120.34974,13.04983H68.62623V6.45923a4.6262,4.6262,0,1,0-9.2524,0v6.5906H7.65026a5.98661,5.98661,0,0,0-5.9866,5.9866V20.1567a5.98661,5.98661,0,0,0,5.9866,5.9866V98.00708a5.01131,5.01131,0,0,0,5.0113,5.0113H35.28l-4.65625,16.992a4.86929,4.86929,0,0,0,9.3925,2.57312l2.188-7.99208,1.02778-3.751,2.14307-7.82206H82.6249l2.143,7.82206,1.02778,3.751,2.18811,7.99208a4.86679,4.86679,0,0,0,4.68874,3.58349,4.92076,4.92076,0,0,0,1.29281-.17506,4.86637,4.86637,0,0,0,3.41089-5.98155L92.72,103.01838h22.621a5.00881,5.00881,0,0,0,5.00878-5.00878V26.14329a5.98661,5.98661,0,0,0,5.9866-5.9866V19.03643A5.98661,5.98661,0,0,0,120.34974,13.04983Zm-8.25212,81.71643H15.90244V30.597h96.19518Z"/></svg>