<?xml version="1.0" encoding="UTF-8"?>
<!DOCTYPE svg PUBLIC "-//W3C//DTD SVG 1.1//EN" "http://www.w3.org/Graphics/SVG/1.1/DTD/svg11.dtd">
<!-- Creator: CorelDRAW -->
<svg xmlns="http://www.w3.org/2000/svg" xml:space="preserve" width="7.83333in" height="7.83333in" style="shape-rendering:geometricPrecision; text-rendering:geometricPrecision; image-rendering:optimizeQuality; fill-rule:evenodd; clip-rule:evenodd"
viewBox="0 0 7.83333 7.83333"
 xmlns:xlink="http://www.w3.org/1999/xlink">
 <defs>
  <style type="text/css">
   <![CDATA[
    .fil3 {fill:#AA90AE}
    .fil2 {fill:#E1BEE7}
    .fil0 {fill:#F48B76}
    .fil1 {fill:#413B32;fill-rule:nonzero}
   ]]>
  </style>
 </defs>
 <g id="Layer_x0020_1">
  <metadata id="CorelCorpID_0Corel-Layer"/>
  <circle class="fil0" cx="3.91667" cy="3.91667" r="3.91667"/>
  <g id="_203005192">
   <g>
    <path id="_203007472" class="fil1" d="M3.91667 1.35667c0.19935,0 0.379843,0.080811 0.510488,0.211457 0.130646,0.130646 0.211457,0.311138 0.211457,0.510488 0,0.19935 -0.080811,0.379839 -0.211457,0.510484 -0.130646,0.130646 -0.311138,0.211461 -0.510488,0.211461 -0.19935,0 -0.379839,-0.080815 -0.510484,-0.211461 -0.130646,-0.130646 -0.211461,-0.311134 -0.211461,-0.510484 0,-0.19935 0.080815,-0.379843 0.211461,-0.510488 0.130646,-0.130646 0.311134,-0.211457 0.510484,-0.211457zm0.397362 0.324583c-0.101685,-0.101685 -0.242181,-0.164583 -0.397362,-0.164583 -0.155181,0 -0.295673,0.0628976 -0.397358,0.164583 -0.101685,0.101685 -0.164587,0.242181 -0.164587,0.397362 0,0.155181 0.0629016,0.295673 0.164587,0.397358 0.101685,0.101685 0.242177,0.164587 0.397358,0.164587 0.155181,0 0.295677,-0.0629016 0.397362,-0.164587 0.101685,-0.101685 0.164583,-0.242177 0.164583,-0.397358 0,-0.155181 -0.0628976,-0.295677 -0.164583,-0.397362z"/>
    <path id="_203006200" class="fil1" d="M3.91667 6.47667c-0.19935,0 -0.379839,-0.080811 -0.510484,-0.211457 -0.130646,-0.130646 -0.211461,-0.311138 -0.211461,-0.510488 0,-0.19935 0.080815,-0.379839 0.211461,-0.510484 0.130646,-0.130646 0.311134,-0.211461 0.510484,-0.211461 0.19935,0 0.379843,0.080815 0.510488,0.211461 0.130646,0.130646 0.211457,0.311134 0.211457,0.510484 0,0.19935 -0.080811,0.379843 -0.211457,0.510488 -0.130646,0.130646 -0.311138,0.211457 -0.510488,0.211457zm-0.397358 -0.324583c0.101685,0.101685 0.242177,0.164583 0.397358,0.164583 0.155181,0 0.295677,-0.0628976 0.397362,-0.164583 0.101685,-0.101685 0.164583,-0.242181 0.164583,-0.397362 0,-0.155181 -0.0628976,-0.295673 -0.164583,-0.397358 -0.101685,-0.101685 -0.242181,-0.164587 -0.397362,-0.164587 -0.155181,0 -0.295673,0.0629016 -0.397358,0.164587 -0.101685,0.101685 -0.164587,0.242177 -0.164587,0.397358 0,0.155181 0.0629016,0.295677 0.164587,0.397362z"/>
    <polygon id="_203006056" class="fil1" points="3.99667,2.72056 3.99667,5.11383 3.83667,5.11383 3.83667,2.72056 "/>
    <path id="_203006608" class="fil1" d="M6.47667 3.91667c0,0.19935 -0.080811,0.379843 -0.211457,0.510488 -0.130646,0.130646 -0.311138,0.211457 -0.510488,0.211457 -0.19935,0 -0.379839,-0.080811 -0.510484,-0.211457 -0.130646,-0.130646 -0.211461,-0.311138 -0.211461,-0.510488 0,-0.19935 0.080815,-0.379843 0.211461,-0.510488 0.130646,-0.130646 0.311134,-0.211457 0.510484,-0.211457 0.19935,0 0.379843,0.080811 0.510488,0.211457 0.130646,0.130646 0.211457,0.311138 0.211457,0.510488zm-0.324583 0.397362c0.101685,-0.101685 0.164583,-0.242181 0.164583,-0.397362 0,-0.155181 -0.0628976,-0.295677 -0.164583,-0.397362 -0.101685,-0.101685 -0.242181,-0.164583 -0.397362,-0.164583 -0.155181,0 -0.295673,0.0628976 -0.397358,0.164583 -0.101685,0.101685 -0.164587,0.242181 -0.164587,0.397362 0,0.155181 0.0629016,0.295677 0.164587,0.397362 0.101685,0.101685 0.242177,0.164583 0.397358,0.164583 0.155181,0 0.295677,-0.0628976 0.397362,-0.164583z"/>
    <path id="_203006584" class="fil1" d="M1.35667 3.91667c0,-0.19935 0.080815,-0.379843 0.211461,-0.510488 0.130646,-0.130646 0.311134,-0.211457 0.510484,-0.211457 0.19935,0 0.379843,0.080811 0.510488,0.211457 0.130646,0.130646 0.211457,0.311138 0.211457,0.510488 0,0.19935 -0.080811,0.379843 -0.211457,0.510488 -0.130646,0.130646 -0.311138,0.211457 -0.510488,0.211457 -0.19935,0 -0.379839,-0.080811 -0.510484,-0.211457 -0.130646,-0.130646 -0.211461,-0.311138 -0.211461,-0.510488zm0.324587 -0.397362c-0.101685,0.101685 -0.164587,0.242181 -0.164587,0.397362 0,0.155181 0.0629016,0.295677 0.164587,0.397362 0.101685,0.101685 0.242177,0.164583 0.397358,0.164583 0.155181,0 0.295677,-0.0628976 0.397362,-0.164583 0.101685,-0.101685 0.164583,-0.242181 0.164583,-0.397362 0,-0.155181 -0.0628976,-0.295677 -0.164583,-0.397362 -0.101685,-0.101685 -0.242181,-0.164583 -0.397362,-0.164583 -0.155181,0 -0.295673,0.0628976 -0.397358,0.164583z"/>
    <polygon id="_203006080" class="fil1" points="5.11278,3.99667 2.7195,3.99667 2.7195,3.83667 5.11278,3.83667 "/>
   </g>
   <path id="_203005864" class="fil2" d="M3.91667 2.64056c0.155181,0 0.295677,-0.0629016 0.397362,-0.164587 0.101685,-0.101685 0.164583,-0.242177 0.164583,-0.397358 0,-0.155181 -0.0628976,-0.295677 -0.164583,-0.397362 -0.101685,-0.101685 -0.242181,-0.164583 -0.397362,-0.164583 -0.155181,0 -0.295673,0.0628976 -0.397358,0.164583 -0.101685,0.101685 -0.164587,0.242181 -0.164587,0.397362 0,0.155181 0.0629016,0.295673 0.164587,0.397358 0.101685,0.101685 0.242177,0.164587 0.397358,0.164587z"/>
   <path id="_203005312" class="fil2" d="M2.64056 3.91667c0,-0.155181 -0.0628976,-0.295677 -0.164583,-0.397362 -0.101685,-0.101685 -0.242181,-0.164583 -0.397362,-0.164583 -0.155181,0 -0.295673,0.0628976 -0.397358,0.164583 -0.101685,0.101685 -0.164587,0.242181 -0.164587,0.397362 0,0.155181 0.0629016,0.295677 0.164587,0.397362 0.101685,0.101685 0.242177,0.164583 0.397358,0.164583 0.155181,0 0.295677,-0.0628976 0.397362,-0.164583 0.101685,-0.101685 0.164583,-0.242181 0.164583,-0.397362z"/>
   <path id="_203005264" class="fil2" d="M3.91667 5.19278c-0.155181,0 -0.295673,0.0629016 -0.397358,0.164587 -0.101685,0.101685 -0.164587,0.242177 -0.164587,0.397358 0,0.155181 0.0629016,0.295677 0.164587,0.397362 0.101685,0.101685 0.242177,0.164583 0.397358,0.164583 0.155181,0 0.295677,-0.0628976 0.397362,-0.164583 0.101685,-0.101685 0.164583,-0.242181 0.164583,-0.397362 0,-0.155181 -0.0628976,-0.295673 -0.164583,-0.397358 -0.101685,-0.101685 -0.242181,-0.164587 -0.397362,-0.164587z"/>
   <path id="_203004688" class="fil2" d="M5.19278 3.91667c0,0.155181 0.0629016,0.295677 0.164587,0.397362 0.101685,0.101685 0.242177,0.164583 0.397358,0.164583 0.155181,0 0.295677,-0.0628976 0.397362,-0.164583 0.101685,-0.101685 0.164583,-0.242181 0.164583,-0.397362 0,-0.155181 -0.0628976,-0.295677 -0.164583,-0.397362 -0.101685,-0.101685 -0.242181,-0.164583 -0.397362,-0.164583 -0.155181,0 -0.295673,0.0628976 -0.397358,0.164583 -0.101685,0.101685 -0.164587,0.242181 -0.164587,0.397362z"/>
   <path id="_203004568" class="fil3" d="M3.84615 1.52105c0.0986772,0.0158976 0.187118,0.0741654 0.253969,0.160201 0.0790079,0.101685 0.127882,0.242181 0.127882,0.397362 0,0.155181 -0.048874,0.295673 -0.127882,0.397358 -0.0668504,0.0860354 -0.155291,0.144307 -0.253969,0.160205 0.0230984,0.0028937 0.0466339,0.00438189 0.0705157,0.00438189 0.155181,0 0.295677,-0.0629016 0.397366,-0.164587 0.101677,-0.101685 0.164579,-0.242177 0.164579,-0.397358 0,-0.155181 -0.0629016,-0.295677 -0.164579,-0.397362 -0.101689,-0.101685 -0.242185,-0.164583 -0.397366,-0.164583 -0.0238819,0 -0.0474173,0.00148819 -0.0705157,0.00438189z"/>
   <path id="_203004520" class="fil3" d="M5.6842 3.35694c0.0986772,0.0158976 0.187118,0.0741654 0.253969,0.160201 0.0790079,0.101685 0.127882,0.242181 0.127882,0.397362 0,0.155181 -0.048874,0.295673 -0.127882,0.397358 -0.0668504,0.0860354 -0.155291,0.144307 -0.253969,0.160205 0.0230984,0.0028937 0.0466339,0.00438189 0.0705157,0.00438189 0.155181,0 0.295677,-0.0629016 0.397366,-0.164587 0.101677,-0.101685 0.164579,-0.242177 0.164579,-0.397358 0,-0.155181 -0.0629016,-0.295677 -0.164579,-0.397362 -0.101689,-0.101685 -0.242185,-0.164583 -0.397366,-0.164583 -0.0238819,0 -0.0474173,0.00148819 -0.0705157,0.00438189z"/>
   <path id="_203004448" class="fil3" d="M3.84615 5.19716c0.0986772,0.0158976 0.187118,0.0741654 0.253969,0.160201 0.0790079,0.101685 0.127882,0.242181 0.127882,0.397362 0,0.155181 -0.048874,0.295673 -0.127882,0.397358 -0.0668504,0.0860354 -0.155291,0.144307 -0.253969,0.160205 0.0230984,0.0028937 0.0466339,0.00438189 0.0705157,0.00438189 0.155181,0 0.295677,-0.0629016 0.397366,-0.164587 0.101677,-0.101685 0.164579,-0.242177 0.164579,-0.397358 0,-0.155181 -0.0629016,-0.295677 -0.164579,-0.397362 -0.101689,-0.101685 -0.242185,-0.164583 -0.397366,-0.164583 -0.0238819,0 -0.0474173,0.00148819 -0.0705157,0.00438189z"/>
   <path id="_203005024" class="fil3" d="M2.00809 3.3591c0.0986772,0.0158976 0.187118,0.0741654 0.253969,0.160201 0.0790079,0.101685 0.127882,0.242181 0.127882,0.397362 0,0.155181 -0.048874,0.295673 -0.127882,0.397358 -0.0668504,0.0860354 -0.155291,0.144307 -0.253969,0.160205 0.0230984,0.0028937 0.0466339,0.00438189 0.0705157,0.00438189 0.155181,0 0.295677,-0.0629016 0.397366,-0.164587 0.101677,-0.101685 0.164579,-0.242177 0.164579,-0.397358 0,-0.155181 -0.0629016,-0.295677 -0.164579,-0.397362 -0.101689,-0.101685 -0.242185,-0.164583 -0.397366,-0.164583 -0.0238819,0 -0.0474173,0.00148819 -0.0705157,0.00438189z"/>
  </g>
 </g>
</svg>
