<?xml version="1.0" encoding="utf-8"?>
<!-- Generator: Adobe Illustrator 17.0.0, SVG Export Plug-In . SVG Version: 6.00 Build 0)  -->
<!DOCTYPE svg PUBLIC "-//W3C//DTD SVG 1.1//EN" "http://www.w3.org/Graphics/SVG/1.1/DTD/svg11.dtd">
<svg version="1.1" id="Layer_1" xmlns="http://www.w3.org/2000/svg" xmlns:xlink="http://www.w3.org/1999/xlink" x="0px" y="0px"
	 width="50px" height="50px" viewBox="0 0 50 50" enable-background="new 0 0 50 50" xml:space="preserve">
<g>
	<g>
		<path fill="#FAFCFD" stroke="#1D2656" stroke-linecap="round" stroke-linejoin="round" stroke-miterlimit="10" d="M44.102,18.267
			v4.567c0,2.161-1.751,3.911-3.916,3.911l0.306,4.282l-5.882-4.282h-4.614v-2.812c0-1.397-0.621-2.652-1.604-3.497
			c-0.811-0.703-1.863-1.126-3.014-1.126H23.13v-1.044c0-2.161,1.751-3.911,3.911-3.911h13.145
			C42.351,14.355,44.102,16.106,44.102,18.267z"/>
		
			<line fill="none" stroke="#1D2656" stroke-linecap="round" stroke-linejoin="round" stroke-miterlimit="10" x1="37.855" y1="17.733" x2="27.352" y2="17.733"/>
		
			<line fill="none" stroke="#1D2656" stroke-linecap="round" stroke-linejoin="round" stroke-miterlimit="10" x1="40.492" y1="23.142" x2="32.997" y2="23.142"/>
		
			<line fill="none" stroke="#1D2656" stroke-linecap="round" stroke-linejoin="round" stroke-miterlimit="10" x1="40.492" y1="20.437" x2="35.218" y2="20.437"/>
		
			<line fill="none" stroke="#1D2656" stroke-linecap="round" stroke-linejoin="round" stroke-miterlimit="10" x1="31.032" y1="20.437" x2="28.392" y2="20.437"/>
	</g>
	<g>
		<path fill="none" stroke="#1D2656" stroke-linecap="round" stroke-linejoin="round" stroke-miterlimit="10" d="M29.996,23.933
			v5.395c0,2.553-2.07,4.619-4.619,4.619h-8.944L9.49,39.006l0.362-5.059c-2.557,0-4.623-2.066-4.623-4.619v-5.395
			c0-2.553,2.066-4.623,4.623-4.623h15.525c1.151,0,2.204,0.423,3.014,1.126C29.375,21.281,29.996,22.536,29.996,23.933z"/>
		
			<line fill="none" stroke="#1D2656" stroke-linecap="round" stroke-linejoin="round" stroke-miterlimit="10" x1="12.604" y1="23.303" x2="25.009" y2="23.303"/>
		
			<line fill="none" stroke="#1D2656" stroke-linecap="round" stroke-linejoin="round" stroke-miterlimit="10" x1="9.489" y1="29.691" x2="18.341" y2="29.691"/>
		
			<line fill="none" stroke="#1D2656" stroke-linecap="round" stroke-linejoin="round" stroke-miterlimit="10" x1="9.489" y1="26.497" x2="15.718" y2="26.497"/>
		
			<line fill="none" stroke="#1D2656" stroke-linecap="round" stroke-linejoin="round" stroke-miterlimit="10" x1="20.663" y1="26.497" x2="24.614" y2="26.497"/>
	</g>
</g>
</svg>
