<?xml version="1.0" encoding="utf-8"?>
<!-- Generator: Adobe Illustrator 24.0.2, SVG Export Plug-In . SVG Version: 6.00 Build 0)  -->
<svg version="1.1" id="Layer_1" xmlns="http://www.w3.org/2000/svg" xmlns:xlink="http://www.w3.org/1999/xlink" x="0px" y="0px"
	 viewBox="0 0 512 512" enable-background="new 0 0 512 512" xml:space="preserve">
<g>
	<g>
		<g>
			<g>
				<path fill="#353F49" d="M278.3,240.1c0,17.9-14.5,32.5-32.5,32.5c-17.9,0-32.5-14.6-32.5-32.5c0-17.9,14.5-32.5,32.5-32.5
					C263.8,207.6,278.3,222.1,278.3,240.1z"/>
			</g>
		</g>
		<g>
			<g>
				<path fill="#FECA5C" d="M275.3,240.1c0,16.3-13.2,29.5-29.4,29.5c-16.3,0-29.4-13.2-29.4-29.5c0-16.3,13.2-29.4,29.4-29.4
					C262.1,210.6,275.3,223.8,275.3,240.1z"/>
			</g>
		</g>
		<g>
			<g>
				<path fill="#FFFFFF" d="M254.2,229.4c0,4.6-3.8,8.4-8.4,8.4c-4.6,0-8.4-3.7-8.4-8.4s3.8-8.4,8.4-8.4
					C250.4,221,254.2,224.8,254.2,229.4z"/>
			</g>
		</g>
		<g>
			<g>
				<path fill="#FFFFFF" d="M245.8,239.8c-8.3,0-15,6.7-15,15v4.6c0,0.8,0.1,1.6,0.2,2.3c4.3,2.5,9.4,4,14.8,4
					c5.4,0,10.4-1.5,14.8-4c0.1-0.8,0.2-1.5,0.2-2.3v-4.6C260.8,246.5,254.1,239.8,245.8,239.8z"/>
			</g>
		</g>
	</g>
	<g>
		<g>
			<g>
				<g>
					<path fill="#353F49" d="M273.5,91.2c0,15.3-12.4,27.7-27.7,27.7c-15.3,0-27.7-12.4-27.7-27.7c0-15.3,12.4-27.7,27.7-27.7
						C261.1,63.6,273.5,76,273.5,91.2z"/>
				</g>
			</g>
			<g>
				<g>
					<path fill="#92E0EA" d="M270.9,91.2c0,13.8-11.2,25.1-25.1,25.1c-13.8,0-25.1-11.2-25.1-25.1c0-13.8,11.2-25.1,25.1-25.1
						C259.7,66.2,270.9,77.4,270.9,91.2z"/>
				</g>
			</g>
			<g>
				<g>
					<path fill="#FFFFFF" d="M252.9,82.2c0,3.9-3.2,7.1-7.1,7.1c-3.9,0-7.1-3.2-7.1-7.1c0-3.9,3.2-7.1,7.1-7.1
						C249.7,75,252.9,78.2,252.9,82.2z"/>
				</g>
			</g>
			<g>
				<g>
					<path fill="#FFFFFF" d="M245.8,91c-7,0-12.8,5.7-12.8,12.8v3.9c0,0.7,0.1,1.3,0.2,2c3.7,2.1,8,3.4,12.6,3.4
						c4.6,0,8.9-1.3,12.6-3.4c0.1-0.7,0.2-1.3,0.2-2v-3.9C258.6,96.7,252.9,91,245.8,91z"/>
				</g>
			</g>
		</g>
		<g>
			<g>
				<g>
					<g>
						<path fill="#353F49" d="M203.7,50.6c0,8.4-6.8,15.2-15.2,15.2s-15.2-6.8-15.2-15.2c0-8.4,6.8-15.2,15.2-15.2
							S203.7,42.2,203.7,50.6z"/>
					</g>
				</g>
				<g>
					<g>
						<path fill="#CDCCCA" d="M202.3,50.6c0,7.6-6.2,13.8-13.8,13.8c-7.6,0-13.8-6.2-13.8-13.8c0-7.6,6.2-13.8,13.8-13.8
							C196.1,36.8,202.3,43,202.3,50.6z"/>
					</g>
				</g>
				<g>
					<g>
						<path fill="#FFFFFF" d="M192.4,45.6c0,2.2-1.8,3.9-3.9,3.9c-2.2,0-3.9-1.8-3.9-3.9c0-2.2,1.8-3.9,3.9-3.9
							C190.7,41.7,192.4,43.4,192.4,45.6z"/>
					</g>
				</g>
				<g>
					<g>
						<path fill="#FFFFFF" d="M188.5,50.5c-3.9,0-7,3.1-7,7v2.1c0,0.4,0,0.7,0.1,1.1c2,1.2,4.4,1.9,6.9,1.9c2.5,0,4.9-0.7,6.9-1.9
							c0.1-0.4,0.1-0.7,0.1-1.1v-2.1C195.5,53.6,192.4,50.5,188.5,50.5z"/>
					</g>
				</g>
			</g>
			<g>
				<g>
					<g>
						<path fill="#353F49" d="M318.3,50.6c0,8.4-6.8,15.2-15.2,15.2c-8.4,0-15.2-6.8-15.2-15.2c0-8.4,6.8-15.2,15.2-15.2
							C311.5,35.4,318.3,42.2,318.3,50.6z"/>
					</g>
				</g>
				<g>
					<g>
						<path fill="#CDCCCA" d="M316.9,50.6c0,7.6-6.2,13.8-13.8,13.8c-7.6,0-13.8-6.2-13.8-13.8c0-7.6,6.2-13.8,13.8-13.8
							C310.7,36.8,316.9,43,316.9,50.6z"/>
					</g>
				</g>
				<g>
					<g>
						<path fill="#FFFFFF" d="M307,45.6c0,2.2-1.8,3.9-3.9,3.9c-2.2,0-3.9-1.8-3.9-3.9c0-2.2,1.8-3.9,3.9-3.9
							C305.3,41.7,307,43.4,307,45.6z"/>
					</g>
				</g>
				<g>
					<g>
						<path fill="#FFFFFF" d="M303.1,50.5c-3.9,0-7,3.1-7,7v2.1c0,0.4,0,0.7,0.1,1.1c2,1.2,4.4,1.9,6.9,1.9c2.5,0,4.9-0.7,6.9-1.9
							c0.1-0.4,0.1-0.7,0.1-1.1v-2.1C310.1,53.6,307,50.5,303.1,50.5z"/>
					</g>
				</g>
			</g>
		</g>
		<g>
			<g>
				<g>
					<path fill="#353F49" d="M261,21.8c0,8.4-6.8,15.2-15.2,15.2c-8.4,0-15.2-6.8-15.2-15.2c0-8.4,6.8-15.2,15.2-15.2
						C254.2,6.6,261,13.4,261,21.8z"/>
				</g>
			</g>
			<g>
				<g>
					<path fill="#CDCCCA" d="M259.6,21.8c0,7.6-6.2,13.8-13.8,13.8c-7.6,0-13.8-6.2-13.8-13.8S238.2,8,245.8,8
						C253.4,8,259.6,14.2,259.6,21.8z"/>
				</g>
			</g>
			<g>
				<g>
					<path fill="#FFFFFF" d="M249.7,16.8c0,2.2-1.8,3.9-3.9,3.9c-2.2,0-3.9-1.8-3.9-3.9s1.8-3.9,3.9-3.9
						C248,12.9,249.7,14.7,249.7,16.8z"/>
				</g>
			</g>
			<g>
				<g>
					<path fill="#FFFFFF" d="M245.8,21.7c-3.9,0-7,3.1-7,7v2.1c0,0.4,0,0.7,0.1,1.1c2,1.2,4.4,1.9,6.9,1.9c2.5,0,4.9-0.7,6.9-1.9
						c0.1-0.3,0.1-0.7,0.1-1.1v-2.1C252.8,24.8,249.7,21.7,245.8,21.7z"/>
				</g>
			</g>
		</g>
		<g>
			<g>
				<g>
					<path fill="#92E0EA" d="M249.8,178.8c-1.2-0.7-1.5-1.9-1.5-2.7c0-0.8,0.3-2,1.5-2.7c2-1.1,5.6-1.3,7.9-4.9
						c2.2-3.6,1.4-8.4,1.4-8.4h-10.9h-4.6h-10.9c0,0-0.8,4.8,1.4,8.4s5.9,3.8,7.9,4.9c1.2,0.7,1.5,1.9,1.5,2.7c0,0.8-0.3,2-1.5,2.7
						c-2,1.1-5.6,1.3-7.9,4.9c-2.2,3.7-1.4,8.4-1.4,8.4h10.9h4.6H259c0,0,0.8-4.8-1.4-8.4C255.4,180.1,251.8,179.9,249.8,178.8z"/>
				</g>
			</g>
			<g>
				<g>
					<rect x="230.8" y="156.9" fill="#92E0EA" width="30" height="2.4"/>
				</g>
			</g>
			<g>
				<g>
					<rect x="230.8" y="192.9" fill="#92E0EA" width="30" height="2.4"/>
				</g>
			</g>
		</g>
		<g>
			<g>
				<path fill="#353F49" d="M245.8,154.9c-0.8,0-1.4-0.6-1.4-1.4c0-0.8,0.6-1.4,1.4-1.4c0.8,0,1.4,0.6,1.4,1.4v0
					C247.2,154.2,246.6,154.9,245.8,154.9z M245.8,149.1c-0.8,0-1.4-0.6-1.4-1.4V146c0-0.8,0.6-1.4,1.4-1.4c0.8,0,1.4,0.6,1.4,1.4
					v1.7C247.2,148.5,246.6,149.1,245.8,149.1z M245.8,141.7c-0.8,0-1.4-0.6-1.4-1.4v-1.7c0-0.8,0.6-1.4,1.4-1.4
					c0.8,0,1.4,0.6,1.4,1.4v1.7C247.2,141,246.6,141.7,245.8,141.7z M245.8,134.2c-0.8,0-1.4-0.6-1.4-1.4v-1.7
					c0-0.8,0.6-1.4,1.4-1.4c0.8,0,1.4,0.6,1.4,1.4v1.7C247.2,133.6,246.6,134.2,245.8,134.2z M245.8,126.8c-0.8,0-1.4-0.6-1.4-1.4
					v-1.7c0-0.8,0.6-1.4,1.4-1.4c0.8,0,1.4,0.6,1.4,1.4v1.7C247.2,126.1,246.6,126.8,245.8,126.8z"/>
			</g>
		</g>
		<g>
			<g>
				<path fill="#353F49" d="M245.8,61.4c-0.8,0-1.4-0.6-1.4-1.4v-1.7c0-0.8,0.6-1.4,1.4-1.4c0.8,0,1.4,0.6,1.4,1.4V60
					C247.2,60.8,246.6,61.4,245.8,61.4z M245.8,54c-0.8,0-1.4-0.6-1.4-1.4v-1.7c0-0.8,0.6-1.4,1.4-1.4c0.8,0,1.4,0.6,1.4,1.4v1.7
					C247.2,53.3,246.6,54,245.8,54z M245.8,46.5c-0.8,0-1.4-0.6-1.4-1.4v-1.7c0-0.8,0.6-1.4,1.4-1.4c0.8,0,1.4,0.6,1.4,1.4v1.7
					C247.2,45.9,246.6,46.5,245.8,46.5z"/>
			</g>
		</g>
		<g>
			<g>
				<path fill="#353F49" d="M219,72.3c-0.3,0-0.6-0.1-0.9-0.3l-1.3-1.1c-0.6-0.5-0.7-1.4-0.2-2c0.5-0.6,1.4-0.7,2-0.2l1.4,1.1
					c0.6,0.5,0.7,1.4,0.2,2C219.8,72.1,219.4,72.3,219,72.3z M213.1,67.7c-0.3,0-0.6-0.1-0.9-0.3l-1.3-1.1c-0.6-0.5-0.7-1.4-0.2-2
					c0.5-0.6,1.4-0.7,2-0.2l1.3,1.1c0.6,0.5,0.7,1.4,0.2,2C214,67.5,213.6,67.7,213.1,67.7z M207.3,63c-0.3,0-0.6-0.1-0.9-0.3
					l-1.3-1.1c-0.6-0.5-0.7-1.4-0.2-2c0.5-0.6,1.4-0.7,2-0.2l1.4,1.1c0.6,0.5,0.7,1.4,0.2,2C208.1,62.9,207.7,63,207.3,63z"/>
			</g>
		</g>
		<g>
			<g>
				<path fill="#353F49" d="M272.2,72.3c-0.4,0-0.8-0.2-1.1-0.6c-0.5-0.6-0.4-1.5,0.2-2l1.3-1.1c0.6-0.5,1.5-0.4,2,0.2
					c0.5,0.6,0.4,1.5-0.2,2l-1.3,1.1C272.8,72.2,272.5,72.3,272.2,72.3z M278,67.7c-0.4,0-0.8-0.2-1.1-0.5c-0.5-0.6-0.4-1.5,0.2-2
					l1.3-1.1c0.6-0.5,1.5-0.4,2,0.2c0.5,0.6,0.4,1.5-0.2,2l-1.3,1.1C278.6,67.6,278.3,67.7,278,67.7z M283.8,63
					c-0.4,0-0.8-0.2-1.1-0.5c-0.5-0.6-0.4-1.5,0.2-2l1.3-1.1c0.6-0.5,1.5-0.4,2,0.2c0.5,0.6,0.4,1.5-0.2,2l-1.4,1.1
					C284.5,62.9,284.2,63,283.8,63z"/>
			</g>
		</g>
	</g>
	<g>
		<g>
			<g>
				<g>
					<path fill="#353F49" d="M130.8,141.7c13.2,7.7,17.8,24.6,10.1,37.8c-7.6,13.2-24.6,17.8-37.8,10.1
						C89.9,182,85.3,165.1,93,151.8C100.6,138.6,117.5,134.1,130.8,141.7z"/>
				</g>
			</g>
			<g>
				<g>
					<path fill="#92E0EA" d="M129.5,143.9c12,6.9,16.1,22.3,9.2,34.2c-6.9,12-22.3,16.1-34.2,9.2c-12-6.9-16.1-22.3-9.2-34.2
						C102.1,141.1,117.5,137,129.5,143.9z"/>
				</g>
			</g>
			<g>
				<g>
					<path fill="#FFFFFF" d="M112.6,154.9c3.4,2,4.6,6.3,2.6,9.7c-2,3.4-6.3,4.6-9.7,2.6c-3.4-2-4.6-6.3-2.6-9.7
						C104.9,154.1,109.2,153,112.6,154.9z"/>
				</g>
			</g>
			<g>
				<g>
					<path fill="#FFFFFF" d="M116.7,165.5c-3.5,6.1-1.4,13.9,4.7,17.4l3.4,1.9c0.6,0.3,1.2,0.6,1.8,0.8c3.7-2.1,6.9-5.2,9.2-9.2
						c2.3-4,3.4-8.3,3.3-12.6c-0.5-0.4-1.1-0.8-1.6-1.1l-3.4-1.9C128.1,157.4,120.3,159.4,116.7,165.5z"/>
				</g>
			</g>
		</g>
		<g>
			<g>
				<g>
					<g>
						<path fill="#353F49" d="M60.7,181.8c7.3,4.2,9.8,13.5,5.6,20.8c-4.2,7.3-13.5,9.8-20.8,5.6c-7.3-4.2-9.8-13.5-5.6-20.8
							C44.1,180.1,53.4,177.6,60.7,181.8z"/>
					</g>
				</g>
				<g>
					<g>
						<path fill="#CDCCCA" d="M60,183c6.6,3.8,8.8,12.2,5,18.8c-3.8,6.6-12.2,8.9-18.8,5.1c-6.6-3.8-8.8-12.2-5-18.8
							C44.9,181.4,53.4,179.2,60,183z"/>
					</g>
				</g>
				<g>
					<g>
						<path fill="#FFFFFF" d="M50.7,189c1.9,1.1,2.5,3.5,1.4,5.4c-1.1,1.9-3.5,2.5-5.4,1.4c-1.9-1.1-2.5-3.5-1.4-5.4
							C46.4,188.6,48.8,188,50.7,189z"/>
					</g>
				</g>
				<g>
					<g>
						<path fill="#FFFFFF" d="M53,194.9c-1.9,3.4-0.8,7.6,2.6,9.6l1.9,1.1c0.3,0.2,0.7,0.3,1,0.5c2-1.2,3.8-2.9,5.1-5.1
							c1.3-2.2,1.8-4.6,1.8-6.9c-0.3-0.2-0.6-0.4-0.9-0.6l-1.9-1.1C59.2,190.4,54.9,191.5,53,194.9z"/>
					</g>
				</g>
			</g>
			<g>
				<g>
					<g>
						<path fill="#353F49" d="M118,82.5c7.3,4.2,9.8,13.5,5.6,20.8c-4.2,7.3-13.5,9.8-20.8,5.6c-7.3-4.2-9.8-13.5-5.6-20.8
							C101.4,80.8,110.7,78.3,118,82.5z"/>
					</g>
				</g>
				<g>
					<g>
						<path fill="#CDCCCA" d="M117.2,83.8c6.6,3.8,8.9,12.2,5,18.8c-3.8,6.6-12.2,8.9-18.8,5c-6.6-3.8-8.9-12.2-5-18.8
							C102.2,82.2,110.7,80,117.2,83.8z"/>
					</g>
				</g>
				<g>
					<g>
						<path fill="#FFFFFF" d="M108,89.8c1.9,1.1,2.5,3.5,1.4,5.4c-1.1,1.9-3.5,2.5-5.4,1.4c-1.9-1.1-2.5-3.5-1.4-5.4
							C103.7,89.4,106.1,88.7,108,89.8z"/>
					</g>
				</g>
				<g>
					<g>
						<path fill="#FFFFFF" d="M110.3,95.6c-1.9,3.4-0.8,7.7,2.6,9.6l1.9,1.1c0.3,0.2,0.7,0.3,1,0.5c2-1.2,3.8-2.9,5.1-5.1
							c1.3-2.2,1.8-4.6,1.8-6.9c-0.3-0.2-0.6-0.4-0.9-0.6l-1.9-1.1C116.5,91.2,112.2,92.3,110.3,95.6z"/>
					</g>
				</g>
			</g>
		</g>
		<g>
			<g>
				<g>
					<path fill="#353F49" d="M64.4,117.8c7.3,4.2,9.8,13.5,5.6,20.8c-4.2,7.3-13.5,9.8-20.8,5.6c-7.3-4.2-9.8-13.5-5.6-20.8
						C47.8,116.1,57.1,113.6,64.4,117.8z"/>
				</g>
			</g>
			<g>
				<g>
					<path fill="#CDCCCA" d="M63.7,119c6.6,3.8,8.9,12.2,5.1,18.8c-3.8,6.6-12.2,8.9-18.8,5c-6.6-3.8-8.9-12.2-5.1-18.8
						C48.7,117.4,57.1,115.2,63.7,119z"/>
				</g>
			</g>
			<g>
				<g>
					<path fill="#FFFFFF" d="M54.4,125c1.9,1.1,2.5,3.5,1.4,5.4c-1.1,1.9-3.5,2.5-5.4,1.4c-1.9-1.1-2.5-3.5-1.4-5.4
						C50.2,124.6,52.6,124,54.4,125z"/>
				</g>
			</g>
			<g>
				<g>
					<path fill="#FFFFFF" d="M56.7,130.9c-1.9,3.4-0.8,7.6,2.6,9.6l1.9,1.1c0.3,0.2,0.7,0.3,1,0.5c2-1.2,3.8-2.9,5.1-5.1
						c1.3-2.2,1.8-4.6,1.8-6.9c-0.3-0.2-0.6-0.4-0.9-0.6l-1.9-1.1C62.9,126.4,58.6,127.5,56.7,130.9z"/>
				</g>
			</g>
		</g>
		<g>
			<g>
				<g>
					<path fill="#92E0EA" d="M194.7,206c-1.2,0.7-2.3,0.3-3-0.1c-0.7-0.4-1.6-1.2-1.6-2.6c0-2.3,1.7-5.5-0.3-9.3
						c-2-3.8-6.6-5.4-6.6-5.4l-5.5,9.5l-2.3,4l-5.5,9.5c0,0,3.7,3.1,8,3c4.3-0.1,6.2-3.2,8.2-4.3c1.2-0.7,2.3-0.3,3,0.1
						c0.7,0.4,1.6,1.2,1.6,2.6c0,2.3-1.7,5.5,0.3,9.3c2,3.8,6.6,5.4,6.6,5.4l5.5-9.5l2.3-4l5.5-9.5c0,0-3.7-3.1-8-3
						C198.6,201.8,196.7,204.8,194.7,206z"/>
				</g>
			</g>
			<g>
				<g>
					
						<rect x="159.8" y="197.9" transform="matrix(0.5 -0.866 0.866 0.5 -84.9977 250.9568)" fill="#92E0EA" width="30" height="2.4"/>
				</g>
			</g>
			<g>
				<g>
					
						<rect x="190.9" y="215.9" transform="matrix(0.5001 -0.866 0.866 0.5001 -85.0089 286.8494)" fill="#92E0EA" width="30" height="2.4"/>
				</g>
			</g>
		</g>
		<g>
			<g>
				<path fill="#353F49" d="M170.8,198.2c-0.2,0-0.5-0.1-0.7-0.2c-0.7-0.4-0.9-1.3-0.6-2c0.4-0.7,1.3-0.9,1.9-0.6l0,0
					c0.7,0.4,0.9,1.3,0.6,1.9C171.8,197.9,171.3,198.2,170.8,198.2z M165.8,195.3c-0.2,0-0.5-0.1-0.7-0.2l-1.5-0.9
					c-0.7-0.4-0.9-1.3-0.5-2c0.4-0.7,1.3-0.9,2-0.5l1.5,0.9c0.7,0.4,0.9,1.3,0.5,2C166.8,195.1,166.3,195.3,165.8,195.3z
					 M159.4,191.6c-0.2,0-0.5-0.1-0.7-0.2l-1.5-0.9c-0.7-0.4-0.9-1.3-0.5-1.9c0.4-0.7,1.3-0.9,2-0.5l1.5,0.9c0.7,0.4,0.9,1.3,0.5,2
					C160.3,191.3,159.8,191.6,159.4,191.6z M152.9,187.9c-0.2,0-0.5-0.1-0.7-0.2l-1.5-0.9c-0.7-0.4-0.9-1.3-0.5-2
					c0.4-0.7,1.3-0.9,2-0.5l1.5,0.9c0.7,0.4,0.9,1.3,0.5,2C153.9,187.6,153.4,187.9,152.9,187.9z M146.5,184.1
					c-0.2,0-0.5-0.1-0.7-0.2l-1.5-0.9c-0.7-0.4-0.9-1.3-0.5-2c0.4-0.7,1.3-0.9,2-0.5l1.5,0.9c0.7,0.4,0.9,1.3,0.5,1.9
					C147.4,183.9,147,184.1,146.5,184.1z"/>
			</g>
		</g>
		<g>
			<g>
				<path fill="#353F49" d="M89.9,151.5c-0.2,0-0.5-0.1-0.7-0.2l-1.5-0.9c-0.7-0.4-0.9-1.3-0.5-1.9c0.4-0.7,1.3-0.9,2-0.5l1.5,0.9
					c0.7,0.4,0.9,1.3,0.5,2C90.8,151.2,90.4,151.5,89.9,151.5z M83.4,147.7c-0.2,0-0.5-0.1-0.7-0.2l-1.5-0.9c-0.7-0.4-0.9-1.3-0.5-2
					c0.4-0.7,1.3-0.9,2-0.5l1.5,0.9c0.7,0.4,0.9,1.3,0.5,1.9C84.4,147.5,83.9,147.7,83.4,147.7z M77,144c-0.2,0-0.5-0.1-0.7-0.2
					l-1.5-0.9c-0.7-0.4-0.9-1.3-0.5-2c0.4-0.7,1.3-0.9,2-0.5l1.5,0.9c0.7,0.4,0.9,1.3,0.5,2C77.9,143.8,77.5,144,77,144z"/>
			</g>
		</g>
		<g>
			<g>
				<path fill="#353F49" d="M70.4,186.3c-0.6,0-1.1-0.3-1.3-0.9c-0.3-0.7,0.1-1.6,0.8-1.9l1.6-0.6c0.7-0.3,1.6,0.1,1.9,0.8
					c0.3,0.7-0.1,1.6-0.8,1.9l-1.6,0.6C70.8,186.2,70.6,186.3,70.4,186.3z M77.3,183.5c-0.6,0-1.1-0.3-1.3-0.9
					c-0.3-0.7,0.1-1.6,0.8-1.9l1.6-0.6c0.7-0.3,1.6,0.1,1.9,0.8c0.3,0.7-0.1,1.6-0.8,1.9l-1.6,0.6C77.7,183.5,77.5,183.5,77.3,183.5
					z M84.2,180.7c-0.6,0-1.1-0.3-1.3-0.9c-0.3-0.7,0.1-1.6,0.8-1.9l1.6-0.6c0.7-0.3,1.6,0.1,1.9,0.8c0.3,0.7-0.1,1.6-0.8,1.9
					l-1.6,0.6C84.6,180.7,84.4,180.7,84.2,180.7z"/>
			</g>
		</g>
		<g>
			<g>
				<path fill="#353F49" d="M112.4,134.1c-0.7,0-1.3-0.5-1.4-1.2l-0.2-1.7c-0.1-0.8,0.4-1.5,1.2-1.6c0.8-0.1,1.5,0.4,1.6,1.2
					l0.3,1.7c0.1,0.8-0.4,1.5-1.2,1.6C112.6,134.1,112.5,134.1,112.4,134.1z M111.4,126.7c-0.7,0-1.3-0.5-1.4-1.2l-0.2-1.7
					c-0.1-0.8,0.4-1.5,1.2-1.6c0.8-0.1,1.5,0.4,1.6,1.2l0.2,1.7c0.1,0.8-0.4,1.5-1.2,1.6C111.5,126.7,111.4,126.7,111.4,126.7z
					 M110.3,119.3c-0.7,0-1.3-0.5-1.4-1.2l-0.2-1.7c-0.1-0.8,0.4-1.5,1.2-1.6c0.8-0.1,1.5,0.4,1.6,1.2l0.2,1.7
					c0.1,0.8-0.4,1.5-1.2,1.6C110.4,119.3,110.4,119.3,110.3,119.3z"/>
			</g>
		</g>
	</g>
	<g>
		<g>
			<g>
				<g>
					<path fill="#353F49" d="M103.1,290.5c13.2-7.6,30.1-3.1,37.8,10.1c7.6,13.2,3.1,30.2-10.1,37.8c-13.2,7.6-30.1,3.1-37.8-10.1
						C85.3,315.1,89.9,298.2,103.1,290.5z"/>
				</g>
			</g>
			<g>
				<g>
					<path fill="#92E0EA" d="M104.4,292.8c12-6.9,27.3-2.8,34.2,9.2c6.9,12,2.8,27.3-9.2,34.2c-12,6.9-27.3,2.8-34.2-9.2
						C88.3,315,92.4,299.7,104.4,292.8z"/>
				</g>
			</g>
			<g>
				<g>
					<path fill="#FFFFFF" d="M105.5,312.8c3.4-2,7.8-0.8,9.7,2.6c2,3.4,0.8,7.8-2.6,9.7c-3.4,2-7.8,0.8-9.7-2.6
						C100.9,319.2,102.1,314.8,105.5,312.8z"/>
				</g>
			</g>
			<g>
				<g>
					<path fill="#FFFFFF" d="M116.7,314.6c3.5,6.1,11.3,8.2,17.4,4.7l3.4-2c0.6-0.3,1.1-0.7,1.6-1.1c0-4.3-1-8.6-3.3-12.6
						c-2.3-4-5.5-7.1-9.2-9.2c-0.6,0.2-1.2,0.5-1.8,0.9l-3.4,1.9C115.3,300.7,113.2,308.5,116.7,314.6z"/>
				</g>
			</g>
		</g>
		<g>
			<g>
				<g>
					<g>
						<path fill="#353F49" d="M102.7,371.2c7.3-4.2,16.6-1.7,20.8,5.6c4.2,7.3,1.7,16.6-5.6,20.8c-7.3,4.2-16.6,1.7-20.8-5.6
							C93,384.8,95.5,375.4,102.7,371.2z"/>
					</g>
				</g>
				<g>
					<g>
						<path fill="#CDCCCA" d="M103.5,372.5c6.6-3.8,15-1.5,18.8,5.1c3.8,6.6,1.5,15-5,18.8c-6.6,3.8-15,1.6-18.8-5
							C94.6,384.7,96.9,376.3,103.5,372.5z"/>
					</g>
				</g>
				<g>
					<g>
						<path fill="#FFFFFF" d="M104.1,383.5c1.9-1.1,4.3-0.4,5.4,1.4c1.1,1.9,0.4,4.3-1.4,5.4c-1.9,1.1-4.3,0.4-5.4-1.4
							C101.5,387,102.2,384.6,104.1,383.5z"/>
					</g>
				</g>
				<g>
					<g>
						<path fill="#FFFFFF" d="M110.3,384.5c1.9,3.4,6.2,4.5,9.6,2.6l1.9-1.1c0.3-0.2,0.6-0.4,0.9-0.6c0-2.4-0.6-4.7-1.8-6.9
							c-1.3-2.2-3-3.9-5.1-5.1c-0.3,0.1-0.7,0.3-1,0.5l-1.9,1.1C109.5,376.8,108.3,381.1,110.3,384.5z"/>
					</g>
				</g>
			</g>
			<g>
				<g>
					<g>
						<path fill="#353F49" d="M45.5,272c7.3-4.2,16.6-1.7,20.8,5.6c4.2,7.3,1.7,16.6-5.6,20.8c-7.3,4.2-16.6,1.7-20.8-5.6
							C35.7,285.5,38.2,276.2,45.5,272z"/>
					</g>
				</g>
				<g>
					<g>
						<path fill="#CDCCCA" d="M46.2,273.3c6.6-3.8,15-1.5,18.8,5.1c3.8,6.6,1.6,15-5,18.8c-6.6,3.8-15,1.6-18.8-5
							C37.3,285.5,39.6,277.1,46.2,273.3z"/>
					</g>
				</g>
				<g>
					<g>
						<path fill="#FFFFFF" d="M46.8,284.3c1.9-1.1,4.3-0.5,5.4,1.4c1.1,1.9,0.4,4.3-1.4,5.4c-1.9,1.1-4.3,0.4-5.4-1.4
							C44.3,287.8,44.9,285.4,46.8,284.3z"/>
					</g>
				</g>
				<g>
					<g>
						<path fill="#FFFFFF" d="M53,285.3c1.9,3.3,6.2,4.5,9.6,2.6l1.9-1.1c0.3-0.2,0.6-0.4,0.9-0.6c0-2.4-0.6-4.7-1.8-6.9
							c-1.3-2.2-3-3.9-5.1-5.1c-0.3,0.1-0.7,0.3-1,0.5l-1.9,1.1C52.2,277.6,51,281.9,53,285.3z"/>
					</g>
				</g>
			</g>
		</g>
		<g>
			<g>
				<g>
					<path fill="#353F49" d="M49.2,336c7.3-4.2,16.6-1.7,20.8,5.6c4.2,7.3,1.7,16.6-5.6,20.8c-7.3,4.2-16.6,1.7-20.8-5.6
						C39.4,349.5,41.9,340.2,49.2,336z"/>
				</g>
			</g>
			<g>
				<g>
					<path fill="#CDCCCA" d="M49.9,337.2c6.6-3.8,15-1.5,18.8,5.1c3.8,6.6,1.5,15-5.1,18.8c-6.6,3.8-15,1.6-18.8-5
						C41,349.5,43.3,341.1,49.9,337.2z"/>
				</g>
			</g>
			<g>
				<g>
					<path fill="#FFFFFF" d="M50.5,348.3c1.9-1.1,4.3-0.5,5.4,1.4c1.1,1.9,0.4,4.3-1.4,5.4c-1.9,1.1-4.3,0.4-5.4-1.4
						C48,351.8,48.6,349.4,50.5,348.3z"/>
				</g>
			</g>
			<g>
				<g>
					<path fill="#FFFFFF" d="M56.7,349.3c1.9,3.3,6.2,4.5,9.6,2.6l1.9-1.1c0.3-0.2,0.6-0.4,0.9-0.6c0-2.4-0.6-4.7-1.8-6.9
						c-1.3-2.2-3-3.9-5.1-5.1c-0.3,0.1-0.7,0.3-1,0.5l-1.9,1.1C55.9,341.6,54.8,345.9,56.7,349.3z"/>
				</g>
			</g>
		</g>
		<g>
			<g>
				<g>
					<path fill="#92E0EA" d="M190.8,267.2c0,1.4-0.9,2.2-1.6,2.6c-0.7,0.4-1.8,0.8-3,0.1c-2-1.1-3.9-4.2-8.2-4.3c-4.3-0.1-8,3-8,3
						l5.5,9.5l2.3,4l5.5,9.5c0,0,4.6-1.7,6.6-5.4c2-3.8,0.3-7,0.3-9.3c0-1.4,0.9-2.2,1.6-2.6c0.7-0.4,1.8-0.8,3-0.1
						c2,1.1,3.9,4.2,8.2,4.4c4.3,0.1,8-3,8-3l-5.5-9.5l-2.3-4l-5.5-9.5c0,0-4.5,1.6-6.6,5.4C189,261.8,190.7,265,190.8,267.2z"/>
				</g>
			</g>
			<g>
				<g>
					
						<rect x="173.7" y="266" transform="matrix(0.866 -0.5 0.5 0.866 -117.0965 125.0745)" fill="#92E0EA" width="2.4" height="30"/>
				</g>
			</g>
			<g>
				<g>
					<polygon fill="#92E0EA" points="199.5,249.5 214.5,275.5 212.4,276.7 197.4,250.7 					"/>
				</g>
			</g>
		</g>
		<g>
			<g>
				<path fill="#353F49" d="M145,299.7c-0.5,0-1-0.3-1.2-0.7c-0.4-0.7-0.2-1.6,0.5-2l1.5-0.9c0.7-0.4,1.6-0.2,2,0.5
					c0.4,0.7,0.2,1.6-0.5,2l-1.5,0.9C145.5,299.6,145.2,299.7,145,299.7z M151.4,296c-0.5,0-1-0.3-1.2-0.7c-0.4-0.7-0.2-1.6,0.5-2
					l1.5-0.9c0.7-0.4,1.6-0.2,2,0.5c0.4,0.7,0.2,1.6-0.5,2l-1.5,0.9C151.9,295.9,151.7,296,151.4,296z M157.9,292.3
					c-0.5,0-1-0.3-1.2-0.7c-0.4-0.7-0.2-1.6,0.5-2l1.5-0.9c0.7-0.4,1.6-0.2,2,0.5c0.4,0.7,0.2,1.6-0.5,1.9l-1.5,0.9
					C158.4,292.2,158.1,292.3,157.9,292.3z M164.3,288.5c-0.5,0-1-0.3-1.2-0.7c-0.4-0.7-0.2-1.6,0.5-2l1.5-0.9
					c0.7-0.4,1.6-0.2,2,0.5c0.4,0.7,0.2,1.6-0.5,2l-1.5,0.9C164.8,288.5,164.6,288.5,164.3,288.5z M170.8,284.8
					c-0.5,0-1-0.3-1.3-0.7c-0.4-0.7-0.1-1.6,0.6-1.9l0,0c0.7-0.4,1.6-0.1,1.9,0.6c0.4,0.7,0.1,1.6-0.6,2
					C171.2,284.8,171,284.8,170.8,284.8z"/>
			</g>
		</g>
		<g>
			<g>
				<path fill="#353F49" d="M75.5,339.8c-0.5,0-1-0.3-1.2-0.7c-0.4-0.7-0.2-1.6,0.5-2l1.5-0.9c0.7-0.4,1.6-0.2,2,0.5
					c0.4,0.7,0.2,1.6-0.5,2l-1.5,0.9C76,339.8,75.7,339.8,75.5,339.8z M81.9,336.1c-0.5,0-1-0.3-1.2-0.7c-0.4-0.7-0.2-1.6,0.5-2
					l1.5-0.9c0.7-0.4,1.6-0.2,2,0.5c0.4,0.7,0.2,1.6-0.5,2l-1.5,0.9C82.4,336.1,82.2,336.1,81.9,336.1z M88.4,332.4
					c-0.5,0-1-0.2-1.2-0.7c-0.4-0.7-0.2-1.6,0.5-2l1.5-0.9c0.7-0.4,1.6-0.2,2,0.5c0.4,0.7,0.2,1.6-0.5,2l-1.5,0.9
					C88.9,332.3,88.6,332.4,88.4,332.4z"/>
			</g>
		</g>
		<g>
			<g>
				<path fill="#353F49" d="M110.3,365.8c-0.1,0-0.1,0-0.2,0c-0.8-0.1-1.3-0.8-1.2-1.6l0.2-1.7c0.1-0.8,0.8-1.3,1.6-1.2
					c0.8,0.1,1.3,0.8,1.2,1.6l-0.2,1.7C111.6,365.2,111,365.8,110.3,365.8z M111.3,358.4c-0.1,0-0.1,0-0.2,0
					c-0.8-0.1-1.3-0.8-1.2-1.6l0.2-1.7c0.1-0.8,0.8-1.3,1.6-1.2c0.8,0.1,1.3,0.8,1.2,1.6l-0.2,1.7
					C112.7,357.9,112,358.4,111.3,358.4z M112.4,351c-0.1,0-0.1,0-0.2,0c-0.8-0.1-1.3-0.8-1.2-1.6l0.2-1.7c0.1-0.8,0.9-1.3,1.6-1.2
					c0.8,0.1,1.3,0.8,1.2,1.6l-0.2,1.7C113.7,350.5,113.1,351,112.4,351z"/>
			</g>
		</g>
		<g>
			<g>
				<path fill="#353F49" d="M86.1,303.3c-0.2,0-0.4,0-0.5-0.1l-1.6-0.6c-0.7-0.3-1.1-1.1-0.8-1.9c0.3-0.7,1.1-1.1,1.9-0.8l1.6,0.6
					c0.7,0.3,1.1,1.1,0.8,1.8C87.2,303,86.6,303.3,86.1,303.3z M79.2,300.5c-0.2,0-0.4,0-0.5-0.1l-1.6-0.6c-0.7-0.3-1.1-1.1-0.8-1.9
					c0.3-0.7,1.1-1.1,1.9-0.8l1.6,0.6c0.7,0.3,1.1,1.1,0.8,1.9C80.3,300.2,79.7,300.5,79.2,300.5z M72.2,297.8c-0.2,0-0.4,0-0.5-0.1
					l-1.6-0.6c-0.7-0.3-1.1-1.1-0.8-1.9c0.3-0.7,1.1-1.1,1.9-0.8l1.6,0.6c0.7,0.3,1.1,1.1,0.8,1.9C73.4,297.4,72.8,297.8,72.2,297.8
					z"/>
			</g>
		</g>
	</g>
	<g>
		<g>
			<g>
				<g>
					<path fill="#353F49" d="M218.1,388.9c0-15.3,12.4-27.7,27.7-27.7c15.3,0,27.7,12.4,27.7,27.7c0,15.3-12.4,27.7-27.7,27.7
						C230.5,416.5,218.1,404.2,218.1,388.9z"/>
				</g>
			</g>
			<g>
				<g>
					<path fill="#92E0EA" d="M220.7,388.9c0-13.8,11.2-25.1,25.1-25.1c13.8,0,25.1,11.2,25.1,25.1c0,13.8-11.2,25.1-25.1,25.1
						C232,413.9,220.7,402.7,220.7,388.9z"/>
				</g>
			</g>
			<g>
				<g>
					<path fill="#FFFFFF" d="M238.7,398c0-3.9,3.2-7.1,7.1-7.1c3.9,0,7.1,3.2,7.1,7.1c0,3.9-3.2,7.1-7.1,7.1
						C241.9,405.1,238.7,401.9,238.7,398z"/>
				</g>
			</g>
			<g>
				<g>
					<path fill="#FFFFFF" d="M245.8,389.1c7,0,12.7-5.7,12.7-12.7v-3.9c0-0.7-0.1-1.4-0.2-2c-3.7-2.1-8-3.4-12.6-3.4
						c-4.6,0-8.9,1.3-12.6,3.4c-0.1,0.7-0.2,1.3-0.2,2v3.9C233.1,383.4,238.8,389.1,245.8,389.1z"/>
				</g>
			</g>
		</g>
		<g>
			<g>
				<g>
					<g>
						<path fill="#353F49" d="M287.9,429.6c0-8.4,6.8-15.2,15.2-15.2c8.4,0,15.2,6.8,15.2,15.2c0,8.4-6.8,15.2-15.2,15.2
							C294.7,444.8,287.9,438,287.9,429.6z"/>
					</g>
				</g>
				<g>
					<g>
						<path fill="#CDCCCA" d="M289.3,429.6c0-7.6,6.2-13.8,13.8-13.8c7.6,0,13.8,6.2,13.8,13.8c0,7.6-6.2,13.8-13.8,13.8
							C295.5,443.3,289.3,437.2,289.3,429.6z"/>
					</g>
				</g>
				<g>
					<g>
						<path fill="#FFFFFF" d="M299.2,434.5c0-2.2,1.8-3.9,3.9-3.9c2.2,0,3.9,1.8,3.9,3.9c0,2.2-1.8,3.9-3.9,3.9
							C300.9,438.5,299.2,436.7,299.2,434.5z"/>
					</g>
				</g>
				<g>
					<g>
						<path fill="#FFFFFF" d="M303.1,429.7c3.9,0,7-3.1,7-7v-2.1c0-0.4,0-0.7-0.1-1.1c-2-1.2-4.4-1.9-6.9-1.9
							c-2.5,0-4.9,0.7-6.9,1.9c-0.1,0.3-0.1,0.7-0.1,1.1v2.1C296.1,426.5,299.2,429.7,303.1,429.7z"/>
					</g>
				</g>
			</g>
			<g>
				<g>
					<g>
						<path fill="#353F49" d="M173.3,429.6c0-8.4,6.8-15.2,15.2-15.2s15.2,6.8,15.2,15.2c0,8.4-6.8,15.2-15.2,15.2
							S173.3,438,173.3,429.6z"/>
					</g>
				</g>
				<g>
					<g>
						<path fill="#CDCCCA" d="M174.7,429.6c0-7.6,6.2-13.8,13.8-13.8c7.6,0,13.8,6.2,13.8,13.8c0,7.6-6.2,13.8-13.8,13.8
							C180.9,443.3,174.7,437.2,174.7,429.6z"/>
					</g>
				</g>
				<g>
					<g>
						<path fill="#FFFFFF" d="M184.6,434.5c0-2.2,1.8-3.9,3.9-3.9c2.2,0,3.9,1.8,3.9,3.9c0,2.2-1.8,3.9-3.9,3.9
							C186.4,438.5,184.6,436.7,184.6,434.5z"/>
					</g>
				</g>
				<g>
					<g>
						<path fill="#FFFFFF" d="M188.5,429.7c3.9,0,7-3.1,7-7v-2.1c0-0.4,0-0.7-0.1-1.1c-2-1.2-4.4-1.9-6.9-1.9
							c-2.5,0-4.9,0.7-6.9,1.9c-0.1,0.3-0.1,0.7-0.1,1.1v2.1C181.5,426.5,184.7,429.7,188.5,429.7z"/>
					</g>
				</g>
			</g>
		</g>
		<g>
			<g>
				<g>
					<path fill="#353F49" d="M230.6,458.3c0-8.4,6.8-15.2,15.2-15.2c8.4,0,15.2,6.8,15.2,15.2c0,8.4-6.8,15.2-15.2,15.2
						C237.4,473.5,230.6,466.7,230.6,458.3z"/>
				</g>
			</g>
			<g>
				<g>
					<path fill="#CDCCCA" d="M232,458.3c0-7.6,6.2-13.8,13.8-13.8c7.6,0,13.8,6.2,13.8,13.8c0,7.6-6.2,13.8-13.8,13.8
						C238.2,472.1,232,465.9,232,458.3z"/>
				</g>
			</g>
			<g>
				<g>
					<path fill="#FFFFFF" d="M241.9,463.3c0-2.2,1.8-3.9,3.9-3.9c2.2,0,3.9,1.8,3.9,3.9c0,2.2-1.8,3.9-3.9,3.9
						C243.6,467.2,241.9,465.5,241.9,463.3z"/>
				</g>
			</g>
			<g>
				<g>
					<path fill="#FFFFFF" d="M245.8,458.4c3.9,0,7-3.1,7-7v-2.1c0-0.4,0-0.7-0.1-1.1c-2-1.2-4.4-1.9-6.9-1.9c-2.5,0-4.9,0.7-6.9,1.9
						c-0.1,0.4-0.1,0.7-0.1,1.1v2.1C238.8,455.3,241.9,458.4,245.8,458.4z"/>
				</g>
			</g>
		</g>
		<g>
			<g>
				<g>
					<path fill="#92E0EA" d="M241.8,301.3c1.2,0.7,1.5,1.9,1.5,2.7c0,0.8-0.3,2-1.5,2.7c-2,1.1-5.6,1.3-7.9,4.9
						c-2.2,3.7-1.4,8.4-1.4,8.4h10.9h4.6H259c0,0,0.8-4.8-1.4-8.4c-2.2-3.6-5.9-3.8-7.9-4.9c-1.2-0.7-1.5-1.9-1.5-2.7
						c0-0.8,0.3-2,1.5-2.7c2-1.1,5.6-1.3,7.9-4.9c2.2-3.6,1.4-8.4,1.4-8.4h-10.9h-4.6h-10.9c0,0-0.8,4.8,1.4,8.4
						C236.2,300.1,239.9,300.2,241.8,301.3z"/>
				</g>
			</g>
			<g>
				<g>
					<rect x="230.8" y="320.8" fill="#92E0EA" width="30" height="2.4"/>
				</g>
			</g>
			<g>
				<g>
					<rect x="230.8" y="284.9" fill="#92E0EA" width="30" height="2.4"/>
				</g>
			</g>
		</g>
		<g>
			<g>
				<path fill="#353F49" d="M245.8,357.9c-0.8,0-1.4-0.6-1.4-1.4v-1.7c0-0.8,0.6-1.4,1.4-1.4c0.8,0,1.4,0.6,1.4,1.4v1.7
					C247.2,357.3,246.6,357.9,245.8,357.9z M245.8,350.5c-0.8,0-1.4-0.6-1.4-1.4v-1.7c0-0.8,0.6-1.4,1.4-1.4c0.8,0,1.4,0.6,1.4,1.4
					v1.7C247.2,349.8,246.6,350.5,245.8,350.5z M245.8,343c-0.8,0-1.4-0.6-1.4-1.4v-1.7c0-0.8,0.6-1.4,1.4-1.4
					c0.8,0,1.4,0.6,1.4,1.4v1.7C247.2,342.4,246.6,343,245.8,343z M245.8,335.6c-0.8,0-1.4-0.6-1.4-1.4v-1.7c0-0.8,0.6-1.4,1.4-1.4
					c0.8,0,1.4,0.6,1.4,1.4v1.7C247.2,335,246.6,335.6,245.8,335.6z M245.8,328.2c-0.8,0-1.4-0.6-1.4-1.4v0c0-0.8,0.6-1.4,1.4-1.4
					c0.8,0,1.4,0.6,1.4,1.4C247.2,327.5,246.6,328.2,245.8,328.2z"/>
			</g>
		</g>
		<g>
			<g>
				<path fill="#353F49" d="M245.8,438.2c-0.8,0-1.4-0.6-1.4-1.4V435c0-0.8,0.6-1.4,1.4-1.4c0.8,0,1.4,0.6,1.4,1.4v1.7
					C247.2,437.5,246.6,438.2,245.8,438.2z M245.8,430.7c-0.8,0-1.4-0.6-1.4-1.4v-1.7c0-0.8,0.6-1.4,1.4-1.4c0.8,0,1.4,0.6,1.4,1.4
					v1.7C247.2,430.1,246.6,430.7,245.8,430.7z M245.8,423.3c-0.8,0-1.4-0.6-1.4-1.4v-1.7c0-0.8,0.6-1.4,1.4-1.4
					c0.8,0,1.4,0.6,1.4,1.4v1.7C247.2,422.6,246.6,423.3,245.8,423.3z"/>
			</g>
		</g>
		<g>
			<g>
				<path fill="#353F49" d="M285.7,421c-0.3,0-0.6-0.1-0.9-0.3l-1.3-1.1c-0.6-0.5-0.7-1.4-0.2-2c0.5-0.6,1.4-0.7,2-0.2l1.3,1.1
					c0.6,0.5,0.7,1.4,0.2,2C286.5,420.8,286.1,421,285.7,421z M279.8,416.4c-0.3,0-0.6-0.1-0.9-0.3l-1.3-1.1c-0.6-0.5-0.7-1.4-0.2-2
					c0.5-0.6,1.4-0.7,2-0.2l1.3,1.1c0.6,0.5,0.7,1.4,0.2,2C280.7,416.2,280.2,416.4,279.8,416.4z M274,411.8c-0.3,0-0.6-0.1-0.9-0.3
					l-1.3-1.1c-0.6-0.5-0.7-1.4-0.2-2c0.5-0.6,1.4-0.7,2-0.2l1.3,1.1c0.6,0.5,0.7,1.4,0.2,2C274.8,411.6,274.4,411.8,274,411.8z"/>
			</g>
		</g>
		<g>
			<g>
				<path fill="#353F49" d="M206.4,421c-0.4,0-0.8-0.2-1.1-0.5c-0.5-0.6-0.4-1.5,0.2-2l1.3-1.1c0.6-0.5,1.5-0.4,2,0.2
					c0.5,0.6,0.4,1.5-0.2,2l-1.4,1.1C207,420.9,206.7,421,206.4,421z M212.3,416.4c-0.4,0-0.8-0.2-1.1-0.5c-0.5-0.6-0.4-1.5,0.2-2
					l1.4-1.1c0.6-0.5,1.5-0.4,2,0.2c0.5,0.6,0.4,1.5-0.2,2l-1.3,1.1C212.9,416.3,212.6,416.4,212.3,416.4z M218.1,411.8
					c-0.4,0-0.8-0.2-1.1-0.6c-0.5-0.6-0.4-1.5,0.2-2l1.3-1.1c0.6-0.5,1.5-0.4,2,0.2c0.5,0.6,0.4,1.5-0.2,2l-1.4,1.1
					C218.7,411.7,218.4,411.8,218.1,411.8z"/>
			</g>
		</g>
	</g>
	<g>
		<g>
			<g>
				<g>
					<path fill="#353F49" d="M360.9,338.4c-13.2-7.6-17.8-24.5-10.1-37.8c7.6-13.2,24.6-17.8,37.8-10.1
						c13.2,7.6,17.8,24.5,10.1,37.8C391,341.5,374.1,346.1,360.9,338.4z"/>
				</g>
			</g>
			<g>
				<g>
					<path fill="#92E0EA" d="M362.2,336.2c-12-6.9-16.1-22.3-9.2-34.2s22.3-16.1,34.2-9.2c12,6.9,16.1,22.3,9.2,34.2
						C389.5,339,374.1,343.1,362.2,336.2z"/>
				</g>
			</g>
			<g>
				<g>
					<path fill="#FFFFFF" d="M379,325.2c-3.4-2-4.6-6.3-2.6-9.7c2-3.4,6.3-4.6,9.7-2.6c3.4,2,4.6,6.3,2.6,9.7
						C386.8,326,382.4,327.2,379,325.2z"/>
				</g>
			</g>
			<g>
				<g>
					<path fill="#FFFFFF" d="M374.9,314.6c3.5-6.1,1.4-13.9-4.7-17.4l-3.4-1.9c-0.6-0.3-1.2-0.6-1.8-0.9c-3.7,2.1-6.9,5.2-9.2,9.2
						c-2.3,4-3.4,8.3-3.3,12.6c0.5,0.4,1.1,0.8,1.6,1.1l3.4,2C363.6,322.8,371.4,320.7,374.9,314.6z"/>
				</g>
			</g>
		</g>
		<g>
			<g>
				<g>
					<g>
						<path fill="#353F49" d="M430.9,298.4c-7.3-4.2-9.8-13.5-5.6-20.8c4.2-7.3,13.5-9.8,20.8-5.6c7.3,4.2,9.8,13.5,5.6,20.8
							C447.5,300.1,438.2,302.6,430.9,298.4z"/>
					</g>
				</g>
				<g>
					<g>
						<path fill="#CDCCCA" d="M431.7,297.1c-6.6-3.8-8.9-12.2-5-18.8c3.8-6.6,12.2-8.9,18.8-5.1c6.6,3.8,8.9,12.2,5,18.8
							C446.7,298.7,438.3,300.9,431.7,297.1z"/>
					</g>
				</g>
				<g>
					<g>
						<path fill="#FFFFFF" d="M440.9,291.1c-1.9-1.1-2.5-3.5-1.4-5.4c1.1-1.9,3.5-2.5,5.4-1.4c1.9,1.1,2.5,3.5,1.4,5.4
							C445.2,291.5,442.8,292.2,440.9,291.1z"/>
					</g>
				</g>
				<g>
					<g>
						<path fill="#FFFFFF" d="M438.7,285.3c1.9-3.4,0.8-7.6-2.6-9.6l-1.9-1.1c-0.3-0.2-0.7-0.3-1-0.5c-2,1.2-3.8,2.9-5.1,5.1
							c-1.3,2.2-1.8,4.6-1.8,6.9c0.3,0.2,0.6,0.4,0.9,0.6l1.9,1.1C432.4,289.8,436.7,288.6,438.7,285.3z"/>
					</g>
				</g>
			</g>
			<g>
				<g>
					<g>
						<path fill="#353F49" d="M373.7,397.6c-7.3-4.2-9.8-13.5-5.6-20.8c4.2-7.3,13.5-9.8,20.8-5.6c7.3,4.2,9.8,13.5,5.6,20.8
							C390.2,399.3,380.9,401.8,373.7,397.6z"/>
					</g>
				</g>
				<g>
					<g>
						<path fill="#CDCCCA" d="M374.4,396.4c-6.6-3.8-8.9-12.2-5.1-18.8c3.8-6.6,12.2-8.9,18.8-5.1c6.6,3.8,8.9,12.3,5.1,18.8
							C389.4,397.9,381,400.2,374.4,396.4z"/>
					</g>
				</g>
				<g>
					<g>
						<path fill="#FFFFFF" d="M383.6,390.3c-1.9-1.1-2.5-3.5-1.4-5.4c1.1-1.9,3.5-2.5,5.4-1.4c1.9,1.1,2.5,3.5,1.4,5.4
							C387.9,390.8,385.5,391.4,383.6,390.3z"/>
					</g>
				</g>
				<g>
					<g>
						<path fill="#FFFFFF" d="M381.4,384.5c1.9-3.4,0.8-7.6-2.6-9.6l-1.9-1.1c-0.3-0.2-0.7-0.3-1-0.5c-2,1.2-3.8,2.9-5.1,5.1
							c-1.3,2.2-1.8,4.6-1.8,6.9c0.3,0.2,0.6,0.4,0.9,0.6l1.9,1.1C375.1,389,379.4,387.8,381.4,384.5z"/>
					</g>
				</g>
			</g>
		</g>
		<g>
			<g>
				<g>
					<path fill="#353F49" d="M427.2,362.4c-7.3-4.2-9.8-13.5-5.6-20.8c4.2-7.3,13.5-9.8,20.8-5.6c7.3,4.2,9.8,13.5,5.6,20.8
						C443.8,364.1,434.5,366.6,427.2,362.4z"/>
				</g>
			</g>
			<g>
				<g>
					<path fill="#CDCCCA" d="M427.9,361.1c-6.6-3.8-8.9-12.2-5-18.8c3.8-6.6,12.2-8.9,18.8-5.1c6.6,3.8,8.9,12.2,5,18.8
						C443,362.7,434.5,364.9,427.9,361.1z"/>
				</g>
			</g>
			<g>
				<g>
					<path fill="#FFFFFF" d="M437.2,355.1c-1.9-1.1-2.5-3.5-1.4-5.4c1.1-1.9,3.5-2.5,5.4-1.4c1.9,1.1,2.5,3.5,1.4,5.4
						C441.5,355.5,439.1,356.2,437.2,355.1z"/>
				</g>
			</g>
			<g>
				<g>
					<path fill="#FFFFFF" d="M434.9,349.3c1.9-3.4,0.8-7.6-2.6-9.6l-1.9-1.1c-0.3-0.2-0.7-0.3-1-0.5c-2,1.2-3.8,2.9-5.1,5.1
						c-1.3,2.2-1.8,4.6-1.8,6.9c0.3,0.2,0.6,0.4,0.9,0.6l1.9,1.1C428.7,353.7,433,352.6,434.9,349.3z"/>
				</g>
			</g>
		</g>
		<g>
			<g>
				<g>
					<path fill="#92E0EA" d="M296.9,274.2c1.2-0.7,2.3-0.3,3,0.1c0.7,0.4,1.6,1.2,1.6,2.6c0,2.3-1.7,5.5,0.3,9.3
						c2,3.8,6.6,5.4,6.6,5.4l5.5-9.5l2.3-4l5.5-9.5c0,0-3.7-3.1-8-3c-4.3,0.1-6.2,3.2-8.2,4.3c-1.2,0.7-2.3,0.3-3-0.1
						c-0.7-0.4-1.6-1.2-1.6-2.6c0-2.3,1.7-5.5-0.3-9.3c-2-3.8-6.6-5.4-6.6-5.4l-5.5,9.5l-2.3,4l-5.5,9.5c0,0,3.7,3.1,8,3
						C293,278.4,294.9,275.3,296.9,274.2z"/>
				</g>
			</g>
			<g>
				<g>
					<polygon fill="#92E0EA" points="308.2,293.5 323.3,267.4 325.3,268.6 310.3,294.6 					"/>
				</g>
			</g>
			<g>
				<g>
					<polygon fill="#92E0EA" points="277.1,275.5 292.1,249.5 294.2,250.7 279.2,276.7 					"/>
				</g>
			</g>
		</g>
		<g>
			<g>
				<path fill="#353F49" d="M346.6,299.7c-0.2,0-0.5-0.1-0.7-0.2l-1.5-0.9c-0.7-0.4-0.9-1.3-0.5-2c0.4-0.7,1.3-0.9,2-0.5l1.5,0.9
					c0.7,0.4,0.9,1.3,0.5,2C347.6,299.4,347.1,299.7,346.6,299.7z M340.2,296c-0.2,0-0.5-0.1-0.7-0.2l-1.5-0.9
					c-0.7-0.4-0.9-1.3-0.5-2c0.4-0.7,1.3-0.9,2-0.5l1.5,0.9c0.7,0.4,0.9,1.3,0.5,2C341.2,295.7,340.7,296,340.2,296z M333.7,292.3
					c-0.2,0-0.5-0.1-0.7-0.2l-1.5-0.9c-0.7-0.4-0.9-1.3-0.5-1.9c0.4-0.7,1.3-0.9,2-0.5l1.5,0.9c0.7,0.4,0.9,1.3,0.5,1.9
					C334.7,292,334.2,292.3,333.7,292.3z M327.3,288.5c-0.2,0-0.5-0.1-0.7-0.2l-1.5-0.9c-0.7-0.4-0.9-1.3-0.5-2
					c0.4-0.7,1.3-0.9,2-0.5l1.5,0.9c0.7,0.4,0.9,1.3,0.5,2C328.3,288.3,327.8,288.5,327.3,288.5z M320.9,284.8
					c-0.2,0-0.5-0.1-0.7-0.2l0,0c-0.7-0.4-0.9-1.3-0.5-2c0.4-0.7,1.3-0.9,2-0.5c0.7,0.4,0.9,1.3,0.5,2
					C321.8,284.6,321.3,284.8,320.9,284.8z"/>
			</g>
		</g>
		<g>
			<g>
				<path fill="#353F49" d="M416.1,339.8c-0.2,0-0.5-0.1-0.7-0.2l-1.5-0.9c-0.7-0.4-0.9-1.3-0.5-2c0.4-0.7,1.3-0.9,2-0.5l1.5,0.9
					c0.7,0.4,0.9,1.3,0.5,2C417.1,339.6,416.6,339.8,416.1,339.8z M409.7,336.1c-0.2,0-0.5-0.1-0.7-0.2l-1.5-0.9
					c-0.7-0.4-0.9-1.3-0.5-2c0.4-0.7,1.3-0.9,2-0.5l1.5,0.9c0.7,0.4,0.9,1.3,0.5,2C410.7,335.9,410.2,336.1,409.7,336.1z
					 M403.2,332.4c-0.2,0-0.5-0.1-0.7-0.2l-1.5-0.9c-0.7-0.4-0.9-1.3-0.5-2c0.4-0.7,1.3-0.9,2-0.5l1.5,0.9c0.7,0.4,0.9,1.3,0.5,2
					C404.2,332.1,403.7,332.4,403.2,332.4z"/>
			</g>
		</g>
		<g>
			<g>
				<path fill="#353F49" d="M405.8,302.9c-0.6,0-1.1-0.3-1.3-0.9c-0.3-0.7,0.1-1.6,0.8-1.9l1.6-0.6c0.7-0.3,1.6,0.1,1.9,0.8
					c0.3,0.7-0.1,1.6-0.8,1.9l-1.6,0.6C406.1,302.9,406,302.9,405.8,302.9z M412.7,300.1c-0.6,0-1.1-0.3-1.3-0.9
					c-0.3-0.7,0.1-1.6,0.8-1.9l1.6-0.6c0.7-0.3,1.6,0.1,1.9,0.8c0.3,0.7-0.1,1.6-0.8,1.9l-1.6,0.6
					C413,300.1,412.9,300.1,412.7,300.1z M419.6,297.4c-0.6,0-1.1-0.3-1.3-0.9c-0.3-0.7,0.1-1.6,0.8-1.9l1.6-0.6
					c0.7-0.3,1.6,0.1,1.9,0.8c0.3,0.7-0.1,1.6-0.8,1.9l-1.6,0.6C420,297.3,419.8,297.4,419.6,297.4z"/>
			</g>
		</g>
		<g>
			<g>
				<path fill="#353F49" d="M381.6,365.4c-0.7,0-1.3-0.5-1.4-1.2l-0.2-1.7c-0.1-0.8,0.4-1.5,1.2-1.6c0.8-0.1,1.5,0.4,1.6,1.2
					l0.2,1.7c0.1,0.8-0.4,1.5-1.2,1.6C381.7,365.4,381.6,365.4,381.6,365.4z M380.5,358c-0.7,0-1.3-0.5-1.4-1.2l-0.2-1.7
					c-0.1-0.8,0.4-1.5,1.2-1.6c0.8-0.1,1.5,0.4,1.6,1.2l0.2,1.7c0.1,0.8-0.4,1.5-1.2,1.6C380.6,358,380.6,358,380.5,358z
					 M379.4,350.6c-0.7,0-1.3-0.5-1.4-1.2l-0.2-1.7c-0.1-0.8,0.4-1.5,1.2-1.6c0.8-0.1,1.5,0.4,1.6,1.2l0.2,1.7
					c0.1,0.8-0.4,1.5-1.2,1.6C379.6,350.6,379.5,350.6,379.4,350.6z"/>
			</g>
		</g>
	</g>
	<g>
		<g>
			<g>
				<g>
					<path fill="#353F49" d="M388.5,189.6c-13.2,7.6-30.1,3.1-37.8-10.1c-7.6-13.2-3.1-30.1,10.1-37.8c13.2-7.6,30.2-3.1,37.8,10.1
						C406.3,165.1,401.8,182,388.5,189.6z"/>
				</g>
			</g>
			<g>
				<g>
					<path fill="#92E0EA" d="M387.2,187.4c-12,6.9-27.3,2.8-34.2-9.2c-6.9-12-2.8-27.3,9.2-34.2c12-6.9,27.3-2.8,34.2,9.2
						C403.3,165.1,399.2,180.4,387.2,187.4z"/>
				</g>
			</g>
			<g>
				<g>
					<path fill="#FFFFFF" d="M386.1,167.3c-3.4,2-7.8,0.8-9.7-2.6c-2-3.4-0.8-7.8,2.6-9.7c3.4-2,7.8-0.8,9.7,2.6
						C390.7,161,389.5,165.3,386.1,167.3z"/>
				</g>
			</g>
			<g>
				<g>
					<path fill="#FFFFFF" d="M374.9,165.5c-3.5-6.1-11.3-8.2-17.4-4.7l-3.4,1.9c-0.6,0.3-1.1,0.7-1.6,1.1c0,4.3,1,8.6,3.3,12.6
						c2.3,4,5.5,7.1,9.2,9.2c0.6-0.2,1.2-0.5,1.8-0.8l3.4-1.9C376.3,179.4,378.4,171.6,374.9,165.5z"/>
				</g>
			</g>
		</g>
		<g>
			<g>
				<g>
					<g>
						<path fill="#353F49" d="M388.9,108.9c-7.3,4.2-16.6,1.7-20.8-5.6c-4.2-7.3-1.7-16.6,5.6-20.8c7.3-4.2,16.6-1.7,20.8,5.6
							C398.6,95.4,396.2,104.7,388.9,108.9z"/>
					</g>
				</g>
				<g>
					<g>
						<path fill="#CDCCCA" d="M388.2,107.6c-6.6,3.8-15,1.6-18.8-5c-3.8-6.6-1.5-15,5.1-18.8c6.6-3.8,15-1.6,18.8,5
							C397,95.4,394.8,103.8,388.2,107.6z"/>
					</g>
				</g>
				<g>
					<g>
						<path fill="#FFFFFF" d="M387.6,96.6c-1.9,1.1-4.3,0.4-5.4-1.4c-1.1-1.9-0.4-4.3,1.4-5.4c1.9-1.1,4.3-0.4,5.4,1.4
							C390.1,93.1,389.4,95.5,387.6,96.6z"/>
					</g>
				</g>
				<g>
					<g>
						<path fill="#FFFFFF" d="M381.4,95.6c-1.9-3.3-6.2-4.5-9.6-2.6l-1.9,1.1c-0.3,0.2-0.6,0.4-0.9,0.6c0,2.4,0.6,4.7,1.8,6.9
							c1.3,2.2,3,3.9,5.1,5.1c0.3-0.1,0.7-0.3,1-0.5l1.9-1.1C382.2,103.3,383.3,99,381.4,95.6z"/>
					</g>
				</g>
			</g>
			<g>
				<g>
					<g>
						<path fill="#353F49" d="M446.2,208.1c-7.3,4.2-16.6,1.7-20.8-5.6c-4.2-7.3-1.7-16.6,5.6-20.8c7.3-4.2,16.6-1.7,20.8,5.6
							C455.9,194.6,453.4,203.9,446.2,208.1z"/>
					</g>
				</g>
				<g>
					<g>
						<path fill="#CDCCCA" d="M445.4,206.9c-6.6,3.8-15,1.5-18.8-5.1c-3.8-6.6-1.5-15,5-18.8s15-1.6,18.8,5.1
							C454.3,194.6,452,203.1,445.4,206.9z"/>
					</g>
				</g>
				<g>
					<g>
						<path fill="#FFFFFF" d="M444.8,195.8c-1.9,1.1-4.3,0.4-5.4-1.4c-1.1-1.9-0.4-4.3,1.4-5.4c1.9-1.1,4.3-0.4,5.4,1.4
							C447.4,192.4,446.7,194.7,444.8,195.8z"/>
					</g>
				</g>
				<g>
					<g>
						<path fill="#FFFFFF" d="M438.7,194.9c-1.9-3.4-6.2-4.5-9.6-2.6l-1.9,1.1c-0.3,0.2-0.6,0.4-0.9,0.6c0,2.4,0.6,4.7,1.8,6.9
							c1.3,2.2,3,3.9,5.1,5.1c0.3-0.1,0.7-0.3,1-0.5l1.9-1.1C439.4,202.5,440.6,198.2,438.7,194.9z"/>
					</g>
				</g>
			</g>
		</g>
		<g>
			<g>
				<g>
					<path fill="#353F49" d="M442.4,144.1c-7.3,4.2-16.6,1.7-20.8-5.6c-4.2-7.3-1.7-16.6,5.6-20.8c7.3-4.2,16.6-1.7,20.8,5.6
						C452.2,130.6,449.7,139.9,442.4,144.1z"/>
				</g>
			</g>
			<g>
				<g>
					<path fill="#CDCCCA" d="M441.7,142.9c-6.6,3.8-15,1.6-18.8-5c-3.8-6.6-1.5-15,5-18.8c6.6-3.8,15-1.6,18.8,5.1
						C450.6,130.6,448.3,139.1,441.7,142.9z"/>
				</g>
			</g>
			<g>
				<g>
					<path fill="#FFFFFF" d="M441.1,131.8c-1.9,1.1-4.3,0.4-5.4-1.4c-1.1-1.9-0.4-4.3,1.4-5.4c1.9-1.1,4.3-0.4,5.4,1.4
						C443.6,128.4,443,130.8,441.1,131.8z"/>
				</g>
			</g>
			<g>
				<g>
					<path fill="#FFFFFF" d="M434.9,130.9c-1.9-3.4-6.2-4.5-9.6-2.6l-1.9,1.1c-0.3,0.2-0.6,0.4-0.9,0.6c0,2.4,0.6,4.7,1.8,6.9
						c1.3,2.2,3,3.9,5.1,5.1c0.3-0.1,0.7-0.3,1-0.5l1.9-1.1C435.7,138.5,436.9,134.2,434.9,130.9z"/>
				</g>
			</g>
		</g>
		<g>
			<g>
				<g>
					<path fill="#92E0EA" d="M300.9,212.9c0-1.4,0.9-2.2,1.6-2.6c0.7-0.4,1.8-0.8,3-0.1c2,1.1,3.9,4.2,8.2,4.3c4.3,0.1,8-3,8-3
						l-5.5-9.5l-2.3-4l-5.5-9.5c0,0-4.6,1.7-6.6,5.4c-2,3.8-0.3,7-0.3,9.3c0,1.4-0.9,2.2-1.6,2.6c-0.7,0.4-1.8,0.8-3,0.1
						c-2-1.1-3.9-4.2-8.2-4.4c-4.3-0.1-8,3-8,3l5.5,9.5l2.3,4l5.5,9.5c0,0,4.5-1.7,6.6-5.4C302.6,218.4,300.9,215.1,300.9,212.9z"/>
				</g>
			</g>
			<g>
				<g>
					
						<rect x="315.6" y="184.1" transform="matrix(0.8661 -0.4999 0.4999 0.8661 -57.1032 185.0324)" fill="#92E0EA" width="2.4" height="30"/>
				</g>
			</g>
			<g>
				<g>
					
						<rect x="284.5" y="202" transform="matrix(0.8659 -0.5001 0.5001 0.8659 -70.2644 171.97)" fill="#92E0EA" width="2.4" height="30"/>
				</g>
			</g>
		</g>
		<g>
			<g>
				<path fill="#353F49" d="M320.8,198.2c-0.5,0-1-0.2-1.2-0.7c-0.4-0.7-0.2-1.6,0.5-2c0.7-0.4,1.6-0.2,2,0.5c0.4,0.7,0.2,1.6-0.5,2
					l0,0C321.3,198.1,321.1,198.2,320.8,198.2z M325.8,195.3c-0.5,0-1-0.3-1.2-0.7c-0.4-0.7-0.2-1.6,0.5-2l1.5-0.9
					c0.7-0.4,1.6-0.2,2,0.5c0.4,0.7,0.2,1.6-0.5,2l-1.5,0.9C326.3,195.2,326.1,195.3,325.8,195.3z M332.3,191.6
					c-0.5,0-1-0.2-1.2-0.7c-0.4-0.7-0.2-1.6,0.5-2l1.5-0.9c0.7-0.4,1.6-0.2,2,0.5c0.4,0.7,0.2,1.6-0.5,2l-1.5,0.9
					C332.7,191.5,332.5,191.6,332.3,191.6z M338.7,187.9c-0.5,0-1-0.3-1.2-0.7c-0.4-0.7-0.2-1.6,0.5-2l1.5-0.9
					c0.7-0.4,1.6-0.2,2,0.5c0.4,0.7,0.2,1.6-0.5,2l-1.5,0.9C339.2,187.8,338.9,187.9,338.7,187.9z M345.1,184.1
					c-0.5,0-1-0.3-1.2-0.7c-0.4-0.7-0.2-1.6,0.5-1.9l1.5-0.9c0.7-0.4,1.6-0.2,2,0.5c0.4,0.7,0.2,1.6-0.5,2l-1.5,0.9
					C345.6,184.1,345.4,184.1,345.1,184.1z"/>
			</g>
		</g>
		<g>
			<g>
				<path fill="#353F49" d="M401.8,151.5c-0.5,0-1-0.3-1.2-0.7c-0.4-0.7-0.2-1.6,0.5-2l1.5-0.9c0.7-0.4,1.6-0.2,2,0.5
					c0.4,0.7,0.2,1.6-0.5,1.9l-1.5,0.9C402.2,151.4,402,151.5,401.8,151.5z M408.2,147.7c-0.5,0-1-0.3-1.2-0.7
					c-0.4-0.7-0.2-1.6,0.5-1.9l1.5-0.9c0.7-0.4,1.6-0.2,2,0.5c0.4,0.7,0.2,1.6-0.5,2l-1.5,0.9C408.7,147.7,408.4,147.7,408.2,147.7z
					 M414.6,144c-0.5,0-1-0.3-1.2-0.7c-0.4-0.7-0.2-1.6,0.5-2l1.5-0.9c0.7-0.4,1.6-0.2,2,0.5c0.4,0.7,0.2,1.6-0.5,2l-1.5,0.9
					C415.1,144,414.9,144,414.6,144z"/>
			</g>
		</g>
		<g>
			<g>
				<path fill="#353F49" d="M379,133.7c-0.1,0-0.1,0-0.2,0c-0.8-0.1-1.3-0.8-1.2-1.6l0.2-1.7c0.1-0.8,0.9-1.3,1.6-1.2
					c0.8,0.1,1.3,0.8,1.2,1.6l-0.2,1.7C380.3,133.1,379.7,133.7,379,133.7z M380,126.3c-0.1,0-0.1,0-0.2,0c-0.8-0.1-1.3-0.8-1.2-1.6
					l0.2-1.7c0.1-0.8,0.8-1.3,1.6-1.2c0.8,0.1,1.3,0.8,1.2,1.6l-0.2,1.7C381.3,125.8,380.7,126.3,380,126.3z M381.1,118.9
					c-0.1,0-0.1,0-0.2,0c-0.8-0.1-1.3-0.8-1.2-1.6l0.2-1.7c0.1-0.8,0.9-1.3,1.6-1.2c0.8,0.1,1.3,0.8,1.2,1.6l-0.2,1.7
					C382.4,118.4,381.8,118.9,381.1,118.9z"/>
			</g>
		</g>
		<g>
			<g>
				<path fill="#353F49" d="M421,185.8c-0.2,0-0.4,0-0.5-0.1l-1.6-0.6c-0.7-0.3-1.1-1.1-0.8-1.9c0.3-0.7,1.1-1.1,1.9-0.8l1.6,0.6
					c0.7,0.3,1.1,1.1,0.8,1.9C422.1,185.5,421.5,185.8,421,185.8z M414.1,183.1c-0.2,0-0.4,0-0.5-0.1l-1.6-0.6
					c-0.7-0.3-1.1-1.1-0.8-1.9c0.3-0.7,1.1-1.1,1.9-0.8l1.6,0.6c0.7,0.3,1.1,1.1,0.8,1.9C415.2,182.8,414.6,183.1,414.1,183.1z
					 M407.1,180.3c-0.2,0-0.4,0-0.5-0.1l-1.6-0.6c-0.7-0.3-1.1-1.1-0.8-1.9c0.3-0.7,1.1-1.1,1.9-0.8l1.6,0.6
					c0.7,0.3,1.1,1.1,0.8,1.9C408.3,180,407.7,180.3,407.1,180.3z"/>
			</g>
		</g>
	</g>
</g>
</svg>
