<?xml version="1.0" encoding="iso-8859-1"?>
<!-- Generator: Adobe Illustrator 22.1.0, SVG Export Plug-In . SVG Version: 6.00 Build 0)  -->
<svg version="1.1" xmlns="http://www.w3.org/2000/svg" xmlns:xlink="http://www.w3.org/1999/xlink" x="0px" y="0px"
	 viewBox="0 0 50 50" style="enable-background:new 0 0 50 50;" xml:space="preserve">
<g id="Layer_1">
	<path d="M26,3V1h-2v2H3H1v2h2v26H1v2h2h17.471L14,47.791V49h2v-0.791L22.654,33H24v16h2V33h1.346L34,48.209V49h2v-1.209L29.529,33
		H47h2v-2h-2V5h2V3h-2H26z M45,31H5V5h40V31z"/>
	<rect x="28" y="15" width="2" height="13"/>
	<rect x="23" y="20" width="2" height="8"/>
	<rect x="18" y="24" width="2" height="4"/>
	<rect x="13" y="20" width="2" height="8"/>
	<rect x="8" y="25" width="2" height="3"/>
	<polygon points="14,15.414 19,20.414 29.707,9.707 28.293,8.293 19,17.586 14,12.586 7.293,19.293 8.707,20.707 	"/>
	<rect x="33" y="8" width="9" height="2"/>
	<rect x="33" y="13" width="9" height="2"/>
</g>
<g>
</g>
</svg>
