<?xml version="1.0" encoding="UTF-8" standalone="no"?> <svg id="Layer_1" data-name="Layer 1" xmlns="http://www.w3.org/2000/svg" viewBox="0 0 128 128"><defs><style>.cls-1{fill:#2e79bd;}.cls-2{fill:#2d3e50;}</style></defs><title>b</title><path class="cls-1" d="M121.60365,92.77781V80.89322L110.808,60.36018a6.97721,6.97721,0,1,0-5.17426,2.29684,7.03633,7.03633,0,0,0,.91148-.06117l10.245,19.48545V92.77781H11.20976V82.0813l10.245-19.48545a6.97672,6.97672,0,1,0-6.066-6.91629,6.95152,6.95152,0,0,0,1.8032,4.68062L6.39635,80.89322V92.77781H1.85123v21.58732H126.14877V92.77781Z"/><path class="cls-2" d="M50.6972,41.1505a13.88157,13.88157,0,0,0,27.25233,0L80.0686,30.22775A14.62237,14.62237,0,0,0,65.58192,13.63487H63.06482A14.62242,14.62242,0,0,0,48.5781,30.22775Z"/><path class="cls-2" d="M28.19114,79.3057c-.1028,1.68884-.17983,3.27491-.23764,4.61052-.08986,2.3053-.11555,3.85289-.11555,3.85289h72.32411s-.02573-1.5476-.11559-3.85289c-.05785-1.33561-.13492-2.92168-.23764-4.61052-.21831-3.474-.55221-7.36534-1.06595-10.377a5.3458,5.3458,0,0,0-.1605-.70628,7.45483,7.45483,0,0,0-3.87211-4.72614c-4.30235-2.14476-11.764-4.91884-16.88184-6.74245a2.78548,2.78548,0,0,0-.3532.66137q-3.901,9.23717-7.78911,18.48082c-.0835.19262-.16054.37881-.244.57147-.05774,0-.1734.0064-.1734.0064L67.23044,60.45123a.78491.78491,0,0,0-.77862-.68583h-4.9037a.78491.78491,0,0,0-.77862.68583L58.73125,76.47384s-.11562-.0064-.1734-.0064c-.0835-.19266-.1605-.37885-.244-.57147q-3.89137-9.23723-7.78914-18.48082a2.78548,2.78548,0,0,0-.3532-.66137C45.05365,58.5774,37.592,61.35148,33.28963,63.49624a7.45478,7.45478,0,0,0-3.872,4.72614,5.34031,5.34031,0,0,0-.16057.70628C28.74336,71.94035,28.40942,75.83165,28.19114,79.3057Z"/></svg>